<?xml version="1.0" encoding="utf-8"?>
<!-- Generator: Adobe Illustrator 21.0.0, SVG Export Plug-In . SVG Version: 6.00 Build 0)  -->
<svg version="1.1" id="Layer_1" xmlns="http://www.w3.org/2000/svg" xmlns:xlink="http://www.w3.org/1999/xlink" x="0px" y="0px"
	 viewBox="0 0 474 470" style="enable-background:new 0 0 474 470;" xml:space="preserve">
<style type="text/css">
	.st0{fill:#404041;}
	.st1{fill:#0D183A;}
	.st2{fill:#231F20;}
</style>
<title>logo-title</title>
<g id="Layer_1-2">
	<path class="st0" d="M81.7,305.2l-5.3,31.9H62.9l5.3-31.9H55.2l2-12.2h39.6l-2,12.2H81.7z"/>
	<path class="st0" d="M111.7,307c5.3-4,9-5.6,12.9-5.6c7.4,0,9.5,3.8,7.9,13.4l-3.8,22.4h-13.1l3.1-18.3c0.6-3.7,0.2-4.8-2.4-4.8
		c-2.2,0-4.3,1.3-6.4,3.3l-3.3,19.9H93.6l7.8-46.4h13.1L111.7,307z"/>
	<path class="st0" d="M150.3,285c3.8,0,7,2.2,6.2,6.7s-4.6,6.6-8.5,6.6s-7-2.2-6.3-6.6S146.5,285,150.3,285z M135.1,337.1l5.9-35.2
		h13.1l-5.9,35.2H135.1z"/>
	<path class="st0" d="M172.6,308.7c3.5-5.1,6.5-7.4,10.4-7.4c1.4,0,2.9,0.1,4.3,0.2l-3.1,13.3c-1.7-0.1-2.9-0.1-4.1-0.1
		c-4.3,0-7.3,1.1-9.5,6.1l-2.7,16.3h-13.1l5.9-35.2h13.1L172.6,308.7z"/>
	<path class="st0" d="M206.4,337.1l0.7-4c-3.2,3-5.5,4.6-10.8,4.6c-7.3,0-12.8-5.5-10.6-18.6c2.1-12.4,8-17.8,16-17.8
		c4,0,7.1,0.9,10,4.4l2.5-15h13.1l-7.8,46.4H206.4z M210,315.6c-1.4-2.2-3-3.4-5.4-3.4c-3.3,0-5.3,2-6.1,6.9
		c-0.9,5.5,0.6,7.8,3.9,7.8c2.7,0,4.4-1,6.2-3.1L210,315.6z"/>
	<path class="st1" d="M254.8,337.1l-1.3-17l-7.1,17H232l-3.3-35.1h12.9l1.3,18.4c0,1.2-0.1,2.3-0.2,3.5c0.4-1.2,0.8-2.4,1.3-3.5
		l8-18.4h9.1l1.9,18.4c0,1.3,0.1,2.6,0,3.8c0.3-1.2,0.7-2.5,1.2-3.8l7.4-18.4h12.9l-15,35.1L254.8,337.1z"/>
	<path class="st1" d="M299.9,307c5.3-4,9-5.6,12.9-5.6c7.4,0,9.5,3.8,7.9,13.4l-3.8,22.4h-13l3-18.3c0.6-3.7,0.2-4.8-2.4-4.8
		c-2.2,0-4.3,1.3-6.4,3.3l-3.3,19.9h-13l7.8-46.4h13.1L299.9,307z"/>
	<path class="st1" d="M356.3,332.1c-6.3,4-11.6,5.6-17.6,5.6c-11.1,0-17-6.2-15-18c2-12,9.8-18.5,21.2-18.5c10.2,0,15.6,6,13.8,16.9
		c-0.3,1.6-0.6,3.2-1.1,4.8h-21.8c0.1,3.3,1.7,4.7,5.2,4.7c4.8,0,8-0.9,12.9-3L356.3,332.1z M347.6,316.1c0.5-3.8-1-5.9-4.3-5.9
		c-3,0-5.2,1.9-6.5,5.9H347.6z"/>
	<path class="st1" d="M394.1,332.1c-6.3,4-11.6,5.6-17.6,5.6c-11.1,0-17-6.2-15-18c2-12,9.8-18.5,21.2-18.5c10.2,0,15.6,6,13.8,16.9
		c-0.3,1.6-0.6,3.2-1.1,4.8h-21.8c0.1,3.3,1.7,4.7,5.2,4.7c4.8,0,8-0.9,12.9-3L394.1,332.1z M385.4,316.1c0.5-3.8-1-5.9-4.3-5.9
		c-3,0-5.2,1.9-6.5,5.9H385.4z"/>
	<path class="st1" d="M397.9,337.1l7.8-46.4h13.1l-7.8,46.4H397.9z"/>
	<path class="st2" d="M89.1,243l1.6,0.2c0.5,0.1,1.1,0.2,1.8,0.2s1.5,0,2.4,0.1s1.9-0.1,3-0.1s2.3-0.2,3.5-0.3
		c2.5-0.3,5.2-0.8,8.2-1.4s6.2-1.5,9.7-2.4l10.9-2.9c1.9-0.5,3.9-1,5.9-1.4s4-0.9,6.1-1.4c4.2-0.9,8.4-1.6,12.8-2.1
		c4.4-0.5,8.8-0.8,13.2-0.7c4.4,0,8.7,0.4,13,1.1c2.1,0.4,4.1,0.8,6.1,1.4c1.9,0.5,3.8,1.1,5.7,1.9c0.9,0.3,1.8,0.7,2.7,1.1
		c0.9,0.4,1.7,0.8,2.5,1.2c1.6,0.8,3.2,1.7,4.6,2.6s2.8,1.9,4,2.7s2.3,1.9,3.4,2.7l1.5,1.3l1.3,1.3l2.2,2.3c1.3,1.5,2.1,2.7,2.7,3.5
		l0.9,1.3l-1.4-0.7l-3.9-2l-2.8-1.3l-1.5-0.7l-1.7-0.7c-2.3-1-5-1.9-7.8-2.8c-3.1-0.9-6.2-1.7-9.4-2.2c-0.8-0.1-1.7-0.3-2.5-0.4
		s-1.7-0.2-2.6-0.3c-1.8-0.2-3.6-0.3-5.4-0.4c-0.9-0.1-1.9,0-2.8-0.1s-1.9-0.1-2.8-0.1c-1.9,0-3.8,0-5.8,0.2
		c-3.9,0.2-7.9,0.5-11.9,1s-8.1,1-12.1,1.6s-8.1,1.2-12,1.7c-7.3,1.1-14.8,1.5-22.2,1.4c-1.7,0-3.3-0.2-4.8-0.4s-3-0.4-4.3-0.7
		s-2.6-0.6-3.7-1s-2.1-0.7-3.1-1.1s-1.7-0.8-2.4-1.2s-1.2-0.7-1.6-1L89.1,243z"/>
	<path class="st1" d="M114.1,221.9c0,0,0.4,0,1,0c0.3,0,0.7,0,1.2,0l1.5-0.2c1.1-0.1,2.4-0.4,3.9-0.7s3.1-0.8,4.9-1.4
		s3.7-1.2,5.7-1.9s4.3-1.4,6.6-2.1c1.2-0.4,2.4-0.7,3.6-1s2.5-0.6,3.8-0.9c2.6-0.6,5.3-1.1,8-1.4c2.8-0.3,5.6-0.5,8.4-0.4
		c2.8,0.1,5.5,0.4,8.3,0.9c2.6,0.5,5.1,1.3,7.5,2.4c1.1,0.5,2.2,1,3.3,1.6c1,0.6,2,1.2,2.9,1.8c1.6,1.1,3.1,2.4,4.4,3.8
		c0.6,0.6,1.1,1.2,1.6,1.8c0.5,0.6,0.9,1.1,1.2,1.6c0.7,1,1.1,1.9,1.5,2.4s0.5,0.9,0.5,0.9l-1-0.3l-2.6-0.9
		c-1.1-0.3-2.4-0.9-3.9-1.2s-3.1-0.9-4.9-1.2s-3.6-0.7-5.6-0.9c-1-0.1-2-0.2-3-0.2s-2.1-0.1-3.2-0.1s-2.2,0-3.3,0.1l-3.4,0.2
		c-2.3,0.2-4.7,0.4-7.1,0.7s-4.9,0.6-7.3,0.9s-4.9,0.6-7.4,0.8c-4.6,0.5-9.3,0.5-13.9,0.1c-1.9-0.2-3.9-0.6-5.7-1.1
		c-1.5-0.4-2.9-1-4.2-1.8c-0.9-0.5-1.6-1-2.4-1.7C114.4,222.1,114.1,221.9,114.1,221.9z"/>
	<path class="st2" d="M380.5,243l-1.3,0.9c-0.4,0.3-0.9,0.6-1.6,1c-0.6,0.4-1.5,0.7-2.4,1.2s-1.9,0.7-3,1.1c-1.1,0.4-2.4,0.6-3.7,1
		c-1.3,0.4-2.8,0.5-4.3,0.7s-3.1,0.3-4.8,0.4c-7.4,0.2-14.8-0.3-22.2-1.4c-3.9-0.5-8-1.1-12-1.7s-8.1-1.2-12.1-1.6
		c-4-0.4-8-0.8-11.9-1c-2-0.1-3.9-0.1-5.8-0.2c-1,0-1.9,0-2.8,0.1c-0.9,0.1-1.9,0-2.8,0.1c-1.8,0.1-3.6,0.2-5.4,0.4
		c-0.9,0.1-1.8,0.2-2.6,0.3s-1.7,0.3-2.5,0.4c-3.2,0.6-6.3,1.3-9.4,2.2c-2.9,0.9-5.5,1.8-7.8,2.8l-1.7,0.7l-1.5,0.7l-2.8,1.3l-3.9,2
		l-1.4,0.7l0.9-1.3c0.6-0.8,1.5-2,2.7-3.5l2.2-2.3l1.3-1.3l1.5-1.3c1-0.9,2.1-1.9,3.3-2.7s2.6-1.8,4-2.7s3-1.8,4.6-2.6
		c0.8-0.4,1.7-0.8,2.5-1.2c0.9-0.4,1.8-0.8,2.7-1.1c1.9-0.7,3.8-1.3,5.7-1.9c2-0.6,4.1-1,6.1-1.4c4.3-0.8,8.6-1.1,13-1.1
		c4.4,0,8.8,0.2,13.2,0.7c4.4,0.5,8.7,1.2,12.8,2.1c2.1,0.4,4.1,0.9,6.1,1.4s4,0.9,5.9,1.4l10.9,2.9c3.4,0.9,6.7,1.7,9.7,2.4
		c3,0.6,5.7,1.1,8.2,1.4c1.2,0.1,2.4,0.3,3.5,0.3c1.1,0.1,2.1,0.1,3,0.1c0.9,0,1.7-0.1,2.4-0.1c0.7,0,1.4-0.2,1.9-0.2L380.5,243z"/>
	<path class="st1" d="M355.4,221.9c0,0-0.3,0.3-0.7,0.7c-0.7,0.7-1.5,1.2-2.4,1.7c-1.3,0.7-2.8,1.3-4.2,1.7
		c-1.9,0.5-3.8,0.9-5.7,1.1c-4.6,0.4-9.3,0.4-13.9-0.1c-2.4-0.2-4.9-0.5-7.4-0.8c-2.4-0.3-4.9-0.6-7.3-0.9c-2.4-0.2-4.8-0.5-7.1-0.7
		l-3.4-0.2c-1.1,0-2.2,0-3.3-0.1s-2.1,0-3.2,0.1c-1,0.1-2,0.1-3,0.2c-2,0.2-3.9,0.5-5.6,0.9s-3.4,0.8-4.9,1.2
		c-1.5,0.4-2.8,0.9-3.9,1.2l-2.6,0.9l-1,0.3c0,0,0.1-0.3,0.5-0.9s0.8-1.4,1.5-2.4c0.3-0.5,0.8-1,1.2-1.6c0.5-0.6,1-1.3,1.6-1.8
		c1.4-1.4,2.8-2.7,4.4-3.9c0.9-0.6,1.8-1.3,2.9-1.8c1.1-0.6,2.2-1.1,3.3-1.6c2.4-1.1,4.9-1.8,7.5-2.4c2.7-0.6,5.5-0.9,8.3-0.9
		c2.8-0.1,5.6,0.1,8.4,0.4c2.7,0.3,5.4,0.8,8,1.4c1.3,0.3,2.5,0.6,3.8,0.9c1.2,0.3,2.4,0.6,3.6,1c2.3,0.7,4.5,1.4,6.6,2.1
		s4,1.3,5.8,1.9s3.4,1,4.9,1.4s2.8,0.6,3.9,0.7l1.5,0.2c0.5,0,0.9,0,1.2,0C355,221.8,355.4,221.9,355.4,221.9z"/>
	<path class="st0" d="M253.1,122.1c-0.9,0-1.8,0.1-2.6,0.2l0.1,0.1c0.1,1,0.2,2.2,0.3,3.4c5.5,2.3,10.1,8.4,12.9,16.8
		c1.9-1.4,3.6-2.9,5.2-4.6l1.6-0.4c2.3,0.9,3.6,4.7,4,6.5c0.3,1.6,0.5,3.9-0.8,5.1l-1.1,0.3v0.1c0,0-1.9,0.2-6.3,5.4
		c0.2,1.8,0.2,3.7,0.3,5.6c0,5-0.6,9.9-1.8,14.7c2,3.3,4.1,6.5,6.5,9.6c0.6,0.8,0.5,2-0.5,4c-0.1,0.3-3.1,6.1-6,6.1
		c-0.2,0-0.3,0-0.5-0.1l-1-0.9c-0.9-2.4-2-4.7-3.2-7c-3.6,5.8-8.4,9.3-13.7,9.3c-1.4-0.1-2.7-0.5-3.9-1.2l0,0l-0.4,0.1
		c3.4,2.5,7.1,4.3,11.2,4.3c15,0,27.1-17.3,27.1-38.7S268.1,122.1,253.1,122.1z"/>
	<path d="M246.5,174.6c6,1.6,11.7,2.7,18,18.9c2,0.5,6.3-6.8,5.6-7.8c-2.9-3.7-5.4-7.6-7.7-11.7c-2.7-5.3-5.9-7.9-8-9.9
		c-0.4-0.4-0.8-0.7-1.3-1c4.5-1.6,8.4-4.4,11.3-8.2c5.9-7.3,8.3-6.7,8.3-6.7c1.8-1.7-0.6-8.4-2.6-9.3c-7.5,8.4-17.1,11.1-21.4,8
		c0.8-1.1,1.4-2.4,1.6-3.8c0-2.5-0.5-14.7-1.2-20.6c-2.3,0.6-4.6,1.7-6.5,3.1c0.7,4.4,1,8.8,0.6,13.3c-0.4,5.6-3.1,10.7-6.1,12.9
		c-3.2-0.2-6.4-0.6-9.6-1.1c-0.5,3.3-0.8,6.6-0.8,9.9c0,0.1,0,0.1,0,0.2v0.1c2.6,0.2,5.1,0.9,7.3,2.1c1.3,0.7,2.3,1.7,3.1,2.9
		l0.2,0.3l0.3,0.8l0,0c1.8,4.4,3.4,9.5,0.9,15.4c-1.1,2.7-2.2,5.1-3.1,7.1c1.2,1.5,2.7,2.8,4.3,3.9l1.3,1.1
		c1.9-4.3,4.2-9.8,4.9-12.1C246.5,179.9,246.7,177.2,246.5,174.6z M245.2,164.8c-1,0-1.8-1.8-1.8-3.9s0.8-3.9,1.8-3.9
		s1.8,1.8,1.8,3.9S246.1,164.8,245.2,164.8L245.2,164.8z"/>
	<path class="st1" d="M229.5,208.6c-1.4-1.1-3-2.5-4.9-4.1c-2-1.9-4-3.9-5.8-6c-1.1-1.2-2.1-2.4-3-3.7c-0.5-0.7-1-1.3-1.5-2
		l-1.4-2.2c-2-3.1-3.7-6.4-5-9.9c-1.4-3.7-2.4-7.6-3-11.5c-0.5-4.1-0.6-8.2-0.2-12.3c0.5-4.1,1.3-8.1,2.6-12c1.3-3.7,3-7.3,5-10.8
		c3.6-6,8.3-11.3,13.8-15.7c2.2-1.7,4.5-3.2,7-4.6c1-0.6,2-1.1,3.1-1.5c1-0.4,1.9-0.8,2.7-1.1l2.2-0.8l1.7-0.4l0.3-0.1
		c-1.7-0.2-3.3-0.3-5-0.3c-26,0-47.1,22.9-47.1,51.1c0,26.5,18.7,48.3,42.5,50.8C233,211.2,231.6,210.2,229.5,208.6z"/>
	<path class="st1" d="M243.4,110.1l-0.5,0.2l-1.6,0.6l-2.1,1c-0.8,0.3-1.6,0.8-2.6,1.3c-1,0.5-2,1.1-2.9,1.8
		c-2.3,1.5-4.4,3.1-6.5,4.9c-2.4,2.1-4.6,4.4-6.6,6.9c-2.2,2.7-4.3,5.7-6,8.8c-1.8,3.3-3.4,6.8-4.6,10.4c-1.2,3.7-2,7.5-2.4,11.4
		c-0.4,3.9-0.3,7.8,0.1,11.6c0.5,3.7,1.4,7.4,2.6,11c1.2,3.3,2.7,6.6,4.4,9.6l1.3,2.2c0.4,0.7,0.9,1.4,1.4,2
		c0.8,1.3,1.7,2.6,2.7,3.8c1.8,2.4,3.6,4.4,5.2,6.2s3.2,3.3,4.5,4.5c2,1.8,3.3,3,3.8,3.5c1.5,0.2,3,0.2,4.4,0.2
		c26,0,47.1-22.9,47.1-51.1C285.2,134.6,266.9,113,243.4,110.1z M253.1,201c-0.6,0-1.2,0-1.8-0.1c-0.2,0-0.4-0.1-0.6-0.1
		c-0.4-0.1-0.8-0.1-1.1-0.3s-0.5-0.2-0.7-0.2s-0.6-0.2-1-0.4s-0.5-0.2-0.8-0.4s-0.6-0.3-0.9-0.4l-0.8-0.5l-0.8-0.5l-0.9-0.6
		l-0.7-0.5l-0.9-0.7l-0.5-0.4l-1.1-0.9l-1.3-1.1c-1.6-1.1-3.1-2.5-4.3-4c-1.3-1.6-2.4-3.2-3.3-5l-0.1-0.2c-0.2-0.4-0.4-0.9-0.7-1.3
		l-0.1-0.3c-0.6-1.3-1.2-2.7-1.7-4.1c-0.1-0.2-0.1-0.4-0.2-0.6s-0.2-0.7-0.4-1.1s-0.2-0.6-0.3-0.9s-0.2-0.7-0.3-1s-0.2-0.8-0.3-1.2
		s-0.1-0.6-0.2-0.9c-0.1-0.7-0.3-1.4-0.4-2.1c0-0.3-0.1-0.5-0.1-0.8c-0.1-0.5-0.2-1-0.2-1.5c0-0.3-0.1-0.6-0.1-0.8
		c-0.1-0.5-0.1-1.1-0.2-1.6c0-0.3-0.1-0.5-0.1-0.7c-0.1-0.8-0.1-1.6-0.2-2.4l-0.1-2.8c0-0.1,0-0.1,0-0.2c0-3.4,0.3-6.7,0.8-10
		c0.3-2,0.8-3.9,1.3-5.8l0.1-0.2c0.5-1.7,1.1-3.4,1.8-5.1l0.1-0.2c0.2-0.5,0.4-1,0.7-1.5l0.1-0.3c0.7-1.4,1.4-2.7,2.3-4l0.3-0.4
		c0.3-0.4,0.5-0.7,0.8-1.1l0.2-0.2c0.5-0.6,1-1.3,1.6-1.9l0.4-0.4c0.3-0.3,0.5-0.5,0.8-0.8l0.4-0.4c0.6-0.5,1.3-1,1.9-1.4l-0.1,0.1
		c0.9-0.6,1.9-1.3,2.9-1.9c2.1-1.4,4.3-2.6,6.6-3.5c0.4-0.1,0.7-0.3,1.1-0.4l0.3-0.1l0.8-0.2l0.3-0.1l0.7-0.1h0.3
		c0.3,0,0.7-0.1,1-0.1c15.8,0,28.6,18,28.6,40.2S268.8,201,253.1,201L253.1,201z"/>
</g>
</svg>
