<svg xmlns="http://www.w3.org/2000/svg" viewBox="0 0 80.75 50.63"><defs><style>.cls-1{fill:#fff;}</style></defs><title>Asset 1</title><g id="Layer_2" data-name="Layer 2"><g id="Layer_1-2" data-name="Layer 1"><g id="Layer_2-2" data-name="Layer 2"><g id="Layer_2-2-2" data-name="Layer 2-2"><path class="cls-1" d="M5.89,43.41,4.7,50.49h-3l1.2-7.08H0L.45,40.7h8.8L8.8,43.41Z"/><path class="cls-1" d="M12.55,43.8a4.76,4.76,0,0,1,2.87-1.25c1.64,0,2.12.85,1.76,3l-.83,5h-2.9l.68-4.06c.14-.82.05-1.07-.54-1.07a2.16,2.16,0,0,0-1.42.72l-.74,4.41H8.52l1.73-10.32h2.9Z"/><path class="cls-1" d="M21.13,38.92c.85,0,1.55.5,1.39,1.49a1.82,1.82,0,0,1-1.88,1.48c-.85,0-1.55-.5-1.39-1.48A1.83,1.83,0,0,1,21.13,38.92ZM17.74,50.49,19,42.68h3l-1.31,7.81Z"/><path class="cls-1" d="M26.08,44.18c.77-1.14,1.45-1.64,2.31-1.64a7.44,7.44,0,0,1,1,0l-.69,3h-.91a2,2,0,0,0-2.12,1.35L25,50.49H22.1l1.31-7.81h2.9Z"/><path class="cls-1" d="M33.58,50.49l.15-.88a3,3,0,0,1-2.4,1c-1.62,0-2.84-1.22-2.35-4.14.46-2.76,1.77-4,3.55-4a2.59,2.59,0,0,1,2.23,1l.56-3.34h2.9L36.48,50.49Zm.8-4.76A1.32,1.32,0,0,0,33.19,45c-.72,0-1.18.45-1.36,1.52s.14,1.73.86,1.73a1.66,1.66,0,0,0,1.38-.69Z"/><path class="cls-1" d="M44.34,50.49,44,46.72l-1.58,3.77H39.26l-.73-7.8h2.86l.28,4.09v.79c.09-.26.19-.53.29-.79l1.78-4.09h2l.42,4.09v.85c.08-.27.16-.56.27-.85L48,42.69h2.9l-3.33,7.8Z"/><path class="cls-1" d="M54.35,43.8a4.76,4.76,0,0,1,2.87-1.25c1.64,0,2.12.85,1.76,3l-.83,5h-2.9l.68-4.06c.14-.82,0-1.07-.54-1.07a2.16,2.16,0,0,0-1.42.72l-.74,4.41h-2.9l1.73-10.32H55Z"/><path class="cls-1" d="M66.88,49.38A7,7,0,0,1,63,50.63c-2.47,0-3.78-1.38-3.34-4a4.48,4.48,0,0,1,4.7-4.11c2.26,0,3.47,1.33,3.06,3.75a9.76,9.76,0,0,1-.24,1.07H62.32c0,.74.37,1,1.16,1a6.46,6.46,0,0,0,2.86-.67ZM65,45.82c.11-.85-.22-1.3-1-1.3s-1.16.42-1.44,1.3Z"/><path class="cls-1" d="M75.27,49.38a7,7,0,0,1-3.9,1.25c-2.47,0-3.78-1.38-3.34-4a4.48,4.48,0,0,1,4.7-4.11c2.26,0,3.47,1.33,3.06,3.75a9.75,9.75,0,0,1-.24,1.07H70.71c0,.74.37,1,1.16,1a6.46,6.46,0,0,0,2.86-.67Zm-1.92-3.56c.11-.85-.22-1.3-1-1.3s-1.16.42-1.44,1.3Z"/><path class="cls-1" d="M76.12,50.49l1.73-10.32h2.9L79,50.49Z"/><path class="cls-1" d="M7.52,29.59h2l.77-.07c.55-.07,1.16-.17,1.82-.32l2.15-.52L16.65,28,18,27.72c.44-.11.9-.21,1.36-.3.92-.19,1.87-.35,2.85-.47a22.8,22.8,0,0,1,2.94-.16A17.07,17.07,0,0,1,28,27a13.48,13.48,0,0,1,1.36.31,12,12,0,0,1,1.27.41,6,6,0,0,1,.59.24l.56.26a10.18,10.18,0,0,1,1,.57c.3.19.61.41.89.6a8,8,0,0,1,.74.61l.33.29.28.29.49.51c.28.32.47.6.61.78l.2.28L36,32.14l-.86-.44-.62-.28-.34-.16-.38-.15A16.75,16.75,0,0,0,30,30l-.56-.09-.58-.07c-.39,0-.79-.08-1.2-.1H25.12a21.89,21.89,0,0,0-2.65.23l-2.7.35c-.9.12-1.79.26-2.67.37a29.25,29.25,0,0,1-4.93.3,4.56,4.56,0,0,1-1.06-.08c-.33-.08-.66-.1-1-.15a3.87,3.87,0,0,1-.82-.22c-.25-.09-.48-.16-.68-.25L8.15,30c-.15-.08-.25-.16-.35-.22Z"/><path class="cls-1" d="M13.08,24.9h.82a3.87,3.87,0,0,0,.86-.16c.32-.08.69-.18,1.08-.3L17.12,24c.46-.15,1-.31,1.46-.46l.8-.22c.27-.07.55-.15.84-.21A17.87,17.87,0,0,1,22,22.78a13,13,0,0,1,1.86-.09,9.85,9.85,0,0,1,1.84.21,8.51,8.51,0,0,1,1.67.53,8.1,8.1,0,0,1,.73.36c.23.13.44.27.64.41a7,7,0,0,1,1,.86,3.6,3.6,0,0,1,.35.4l.27.36c.15.22.25.42.32.54l.1.2-.21-.07L30,26.28c-.25-.07-.53-.19-.87-.27s-.7-.19-1.09-.27a11.32,11.32,0,0,0-1.25-.19,3.21,3.21,0,0,1-.68,0H23.92a13,13,0,0,0-1.57.15l-1.62.19L19.09,26A15.34,15.34,0,0,1,16,26a7.47,7.47,0,0,1-1.27-.25,5,5,0,0,1-.94-.39,2.72,2.72,0,0,1-.52-.37Z"/><path class="cls-1" d="M72.25,29.59l-.29.2-.35.22-.52.26c-.2.09-.43.16-.68.25s-.53.14-.82.22a6.43,6.43,0,0,1-1,.15c-.38,0-.69.07-1.06.08a29.25,29.25,0,0,1-4.93-.3c-.88-.11-1.77-.24-2.67-.37s-1.8-.26-2.7-.35-1.78-.19-2.65-.23H52a9.4,9.4,0,0,0-1.2.1l-.58.07L49.7,30a17.91,17.91,0,0,0-2.08.49q-1,.3-1.74.63l-.38.15-.34.16-.62.28-.86.44-.31.15.2-.28c.14-.18.33-.46.61-.78l.49-.51.28-.29.33-.29c.23-.19.47-.41.74-.61a10.6,10.6,0,0,1,.89-.6c.32-.19.66-.39,1-.57l.56-.26a6,6,0,0,1,.59-.24,12,12,0,0,1,1.27-.41,13.48,13.48,0,0,1,1.36-.31,17.07,17.07,0,0,1,2.88-.25,22.8,22.8,0,0,1,2.94.16c1,.12,1.92.28,2.85.47.46.09.92.19,1.36.3l1.31.32,2.43.64c.76.19,1.48.39,2.15.52s1.27.25,1.82.32l.77.07h1.61Z"/><path class="cls-1" d="M66.68,24.9l-.16.15a2.72,2.72,0,0,1-.52.37,5,5,0,0,1-.94.39,7.47,7.47,0,0,1-1.27.25,15.34,15.34,0,0,1-3.09,0,13.26,13.26,0,0,1-1.64-.18c-.55-.07-1.09-.14-1.62-.19l-1.57-.15H53.68a3.12,3.12,0,0,0-.68,0,6.17,6.17,0,0,0-1.25.19c-.39.08-.76.17-1.09.27s-.61.2-.87.27l-.57.21L49,26.6l.1-.2c.07-.12.17-.32.32-.54l.27-.36a3.6,3.6,0,0,1,.35-.4,7,7,0,0,1,1-.86c.2-.13.41-.28.64-.41a8.1,8.1,0,0,1,.73-.36,8.51,8.51,0,0,1,1.67-.53,9.85,9.85,0,0,1,1.84-.21,13,13,0,0,1,1.86.09,17.87,17.87,0,0,1,1.77.31q.44.09.84.21l.8.22c.52.15,1,.31,1.46.46l1.28.41c.39.13.75.22,1.08.3s.62.12.86.16h.8Z"/><path class="cls-1" d="M44,2.74a4.13,4.13,0,0,0-.58,0h0c0,.22,0,.48.07.76a5.84,5.84,0,0,1,2.87,3.73,7.13,7.13,0,0,0,1.15-1l.36-.09c.5.19.8,1,.88,1.45a1.26,1.26,0,0,1-.18,1.14l-.25.07h0s-.43,0-1.4,1.19q0,.61.06,1.24a13.19,13.19,0,0,1-.4,3.26A22.21,22.21,0,0,0,48,16.68c.14.19.11.45-.11.89,0,.06-.68,1.36-1.34,1.36h-.12l-.23-.2a14.48,14.48,0,0,0-.71-1.56,3.76,3.76,0,0,1-3,2.07,1.81,1.81,0,0,1-.87-.27h-.09A4.25,4.25,0,0,0,44,20c3.33,0,6-3.85,6-8.6S47.28,2.74,44,2.74Z"/><path class="cls-1" d="M42.48,14.4c1.34.37,2.59.6,4,4.2.45.1,1.4-1.52,1.24-1.72A20.1,20.1,0,0,1,46,14.27a7.25,7.25,0,0,0-1.77-2.19,2.34,2.34,0,0,0-.29-.22A5.35,5.35,0,0,0,46.49,10c1.31-1.63,1.83-1.5,1.83-1.5.39-.38-.12-1.88-.59-2.06C46,8.35,43.93,8.95,43,8.26a1.93,1.93,0,0,0,.36-.85c0-.55-.12-3.27-.27-4.57a4,4,0,0,0-1.44.7,12.25,12.25,0,0,1,.14,3,4,4,0,0,1-1.36,2.86,21.26,21.26,0,0,1-2.13-.24,13.4,13.4,0,0,0-.18,2.19h0a4.17,4.17,0,0,1,1.62.48,2.1,2.1,0,0,1,.7.65v.07l.07.17h0a4.25,4.25,0,0,1,.19,3.43c-.25.6-.49,1.13-.69,1.58a4.39,4.39,0,0,0,1,.87l.29.24c.42-1,.94-2.18,1.09-2.7A5.8,5.8,0,0,0,42.48,14.4Zm-.29-2.19c-.22,0-.4-.39-.4-.88s.18-.88.4-.88.4.39.4.88S42.41,12.21,42.19,12.21Z"/><path class="cls-1" d="M38.71,22c-.3-.25-.67-.56-1.08-.92a16.13,16.13,0,0,1-1.28-1.32,10,10,0,0,1-.66-.82c-.11-.15-.23-.29-.33-.45L35,18a12.7,12.7,0,0,1-1.11-2.19,12.25,12.25,0,0,1-.66-2.56,12.42,12.42,0,0,1,0-2.73,13.22,13.22,0,0,1,.59-2.66,13,13,0,0,1,1.11-2.39A12.78,12.78,0,0,1,38,2a11,11,0,0,1,1.55-1q.33-.19.67-.35c.22-.09.41-.19.6-.25l.5-.17.37-.1h.06A9.75,9.75,0,0,0,40.64,0C34.86,0,30.18,5.08,30.18,11.34c0,5.9,4.15,10.74,9.45,11.29Z"/><path class="cls-1" d="M41.81.07H41.7l-.36.14-.47.22a6.17,6.17,0,0,0-.57.29,7.41,7.41,0,0,0-.65.39A13.39,13.39,0,0,0,38.22,2.2a14.29,14.29,0,0,0-1.47,1.53,13.7,13.7,0,0,0-1.33,2,13.55,13.55,0,0,0-1,2.3,12.59,12.59,0,0,0-.54,2.53,11.86,11.86,0,0,0,0,2.58,12.86,12.86,0,0,0,.57,2.44,13.94,13.94,0,0,0,1,2.14l.28.48c.09.16.2.3.3.45a9.67,9.67,0,0,0,.6.84c.4.53.81,1,1.16,1.39s.71.72,1,1l.85.77a9.75,9.75,0,0,0,1,0c5.77,0,10.45-5.08,10.45-11.34C51.09,5.51,47,.7,41.81.07ZM44,20.27h-.55l-.25-.06L43,20.1l-.22-.1-.17-.08-.19-.09-.18-.1-.17-.11-.19-.13-.15-.11-.21-.15-.12-.09-.24-.2-.29-.25a4.47,4.47,0,0,1-1-.89,6.69,6.69,0,0,1-.73-1.11h0L39,16.4v-.06a9.48,9.48,0,0,1-.37-.91l0-.14L38.46,15l-.06-.2-.06-.23-.07-.27v-.19a1.25,1.25,0,0,0-.09-.46v-.17a.83.83,0,0,0,0-.34L38,13V11.33h0a13.62,13.62,0,0,1,.18-2.22,12.07,12.07,0,0,1,.29-1.29h0A10.28,10.28,0,0,1,38.8,6.6h0l.2-.38V6.16a7.58,7.58,0,0,1,.5-.89l.06-.09.17-.24h0a5.39,5.39,0,0,1,.35-.41l.08-.08.18-.17.09-.08a3.88,3.88,0,0,1,.43-.32h0l.64-.43A8.35,8.35,0,0,1,43,2.63l.24-.08H44c3.5,0,6.35,4,6.35,8.93S47.45,20.27,44,20.27Z"/></g></g></g></g></svg>